<?xml version="1.0" encoding="utf-8"?>
<!-- Generator: Adobe Illustrator 19.0.1, SVG Export Plug-In . SVG Version: 6.00 Build 0)  -->
<svg version="1.1" id="圖層_1" xmlns="http://www.w3.org/2000/svg" xmlns:xlink="http://www.w3.org/1999/xlink" x="0px" y="0px"
	 viewBox="0 0 32 32" style="enable-background:new 0 0 32 32;" xml:space="preserve">
<style type="text/css">
	.st0{fill:#231815;}
	.st1{fill:#231815;stroke:#231815;stroke-linecap:round;stroke-linejoin:round;stroke-miterlimit:10;}
	.st2{fill:#FFFFFF;}
	.st3{fill:none;stroke:#FFFFFF;stroke-width:0.25;stroke-linecap:round;stroke-miterlimit:10;}
	.st4{fill:none;stroke:#231815;stroke-linecap:round;stroke-linejoin:round;stroke-miterlimit:10;}
	.st5{fill:none;stroke:#FFFFFF;stroke-linecap:round;stroke-linejoin:round;stroke-miterlimit:10;}
	.st6{fill:none;stroke:#FFFFFF;stroke-width:0.6;stroke-linecap:round;stroke-linejoin:round;stroke-miterlimit:10;}
</style>
<g>
	<circle class="st0" cx="18.7" cy="11.4" r="3.1"/>
	<polygon class="st1" points="18.6,14.1 17.7,16.9 19.7,16.9 	"/>
	<circle class="st2" cx="17.7" cy="11.3" r="0.4"/>
	<circle class="st2" cx="19.7" cy="11.3" r="0.4"/>
	<path class="st3" d="M18,12.7c0,0.2,0.3,0.3,0.7,0.3c0.4,0,0.8-0.2,0.7-0.4"/>
	<path class="st0" d="M6.8,12.9c-2.7,0-4.8,2.2-4.8,4.8c0,2.7,2.1,4.8,4.8,4.8s4.8-2.1,4.8-4.8S9.4,12.9,6.8,12.9z"/>
	<polygon class="st1" points="6.6,21.9 5.2,26.3 8.4,26.3 	"/>
	<circle class="st2" cx="8.4" cy="17.5" r="0.6"/>
	<path class="st3" d="M9.5,19.7c0,0.3,0.5,0.5,1,0.5c0.6,0,1.2-0.2,1.2-0.6"/>
	<path class="st0" d="M25.2,12.9c2.6,0,4.8,2.1,4.8,4.8s-2.1,4.8-4.8,4.8s-4.8-2.1-4.8-4.8S22.6,12.9,25.2,12.9"/>
	<polygon class="st1" points="25,21.9 23.6,26.3 26.8,26.3 	"/>
	<circle class="st2" cx="23.7" cy="17.5" r="0.6"/>
	<path class="st3" d="M20.5,19.7c0,0.3,0.5,0.5,1,0.5c0.6,0,1.2-0.2,1.2-0.6"/>
	<rect x="3.9" y="3.8" class="st1" width="9.8" height="6"/>
	<polygon class="st4" points="9.7,9.9 10.4,10.9 11,9.9 	"/>
	<rect x="22.6" y="5.2" class="st1" width="5.3" height="3.3"/>
	<polygon class="st4" points="24.1,8.8 24.4,9.4 24.8,8.8 	"/>
	<g>
		<line class="st5" x1="5.5" y1="5.2" x2="12.1" y2="5.2"/>
		<line class="st5" x1="5.5" y1="6.9" x2="12.1" y2="6.9"/>
		<line class="st5" x1="5.5" y1="8.5" x2="12.1" y2="8.5"/>
	</g>
	<line class="st6" x1="23.5" y1="6.3" x2="27" y2="6.3"/>
	<line class="st6" x1="23.5" y1="7.6" x2="27" y2="7.6"/>
</g>
</svg>
