<?xml version="1.0" encoding="utf-8"?>
<!-- Generator: Adobe Illustrator 19.0.1, SVG Export Plug-In . SVG Version: 6.00 Build 0)  -->
<svg version="1.1" id="圖層_1" xmlns="http://www.w3.org/2000/svg" xmlns:xlink="http://www.w3.org/1999/xlink" x="0px" y="0px"
	 viewBox="0 0 32 32" style="enable-background:new 0 0 32 32;" xml:space="preserve">
<style type="text/css">
	.st0{fill:none;stroke:#231815;stroke-linecap:round;stroke-linejoin:round;stroke-miterlimit:10;}
	.st1{fill:#231815;}
	.st2{fill:#231815;stroke:#231815;stroke-linecap:round;stroke-linejoin:round;stroke-miterlimit:10;}
	.st3{fill:#FFFFFF;}
	.st4{fill:none;stroke:#FFFFFF;stroke-width:0.25;stroke-linecap:round;stroke-miterlimit:10;}
</style>
<g>
	<g>
		<path class="st0" d="M3.9,13.7c0-5.2,4.2-9.3,9.3-9.3L10,2.2"/>
		<path class="st0" d="M13.5,27.7c-5.2,0-9.3-4.2-9.3-9.3L2,21.5"/>
		<path class="st0" d="M18.5,4.3c5.2,0,9.3,4.2,9.3,9.3l2.2-3.2"/>
		<path class="st0" d="M28.1,18.3c0,5.2-4.2,9.3-9.3,9.3l3.2,2.2"/>
	</g>
	<g>
		<circle class="st1" cx="16" cy="13.6" r="4.6"/>
		<polygon class="st2" points="15.8,17.6 14.5,21.8 17.5,21.8 		"/>
		<circle class="st3" cx="14.5" cy="13.4" r="0.6"/>
		<circle class="st3" cx="17.5" cy="13.4" r="0.6"/>
	</g>
</g>
<path class="st4" d="M14.9,15.5c0,0.3,0.5,0.5,1,0.5c0.6,0,1.1-0.2,1.1-0.5"/>
</svg>
